<?xml version="1.0" encoding="utf-8"?>
<!-- Generator: Adobe Illustrator 21.1.0, SVG Export Plug-In . SVG Version: 6.00 Build 0)  -->
<svg version="1.1" id="Layer_1" xmlns="http://www.w3.org/2000/svg" xmlns:xlink="http://www.w3.org/1999/xlink" x="0px" y="0px"
	 viewBox="0 0 230.1 49.9" style="enable-background:new 0 0 230.1 49.9;" xml:space="preserve">
<style type="text/css">
	.st0{clip-path:url(#SVGID_2_);}
	.st1{clip-path:url(#SVGID_4_);}
	.st2{clip-path:url(#SVGID_6_);}
	.st3{clip-path:url(#SVGID_8_);}
	.st4{clip-path:url(#SVGID_10_);}
	.st5{clip-path:url(#SVGID_12_);}
	.st6{clip-path:url(#SVGID_14_);}
	.st7{clip-path:url(#SVGID_16_);}
	.st8{clip-path:url(#SVGID_18_);}
	.st9{clip-path:url(#SVGID_20_);}
	.st10{clip-path:url(#SVGID_22_);}
	.st11{clip-path:url(#SVGID_24_);}
	.st12{clip-path:url(#SVGID_26_);}
	.st13{clip-path:url(#SVGID_28_);}
	.st14{clip-path:url(#SVGID_30_);}
	.st15{clip-path:url(#SVGID_32_);}
	.st16{clip-path:url(#SVGID_34_);}
	.st17{clip-path:url(#SVGID_36_);}
	.st18{clip-path:url(#SVGID_38_);}
	.st19{clip-path:url(#SVGID_40_);}
	.st20{clip-path:url(#SVGID_42_);}
	.st21{clip-path:url(#SVGID_44_);}
	.st22{clip-path:url(#SVGID_46_);}
	.st23{clip-path:url(#SVGID_48_);}
	.st24{clip-path:url(#SVGID_50_);}
	.st25{clip-path:url(#SVGID_52_);}
	.st26{clip-path:url(#SVGID_54_);}
	.st27{clip-path:url(#SVGID_56_);}
	.st28{clip-path:url(#SVGID_58_);}
	.st29{clip-path:url(#SVGID_60_);}
	.st30{clip-path:url(#SVGID_62_);}
	.st31{clip-path:url(#SVGID_64_);}
	.st32{clip-path:url(#SVGID_66_);}
	.st33{clip-path:url(#SVGID_68_);}
	.st34{clip-path:url(#SVGID_70_);}
	.st35{clip-path:url(#SVGID_72_);}
	.st36{clip-path:url(#SVGID_74_);}
	.st37{clip-path:url(#SVGID_76_);}
	.st38{clip-path:url(#SVGID_78_);}
	.st39{clip-path:url(#SVGID_80_);}
	.st40{clip-path:url(#SVGID_82_);}
	.st41{clip-path:url(#SVGID_84_);}
	.st42{clip-path:url(#SVGID_86_);}
	.st43{clip-path:url(#SVGID_88_);}
	.st44{clip-path:url(#SVGID_90_);}
	.st45{clip-path:url(#SVGID_92_);}
	.st46{clip-path:url(#SVGID_94_);}
	.st47{clip-path:url(#SVGID_96_);}
	.st48{clip-path:url(#SVGID_98_);}
	.st49{clip-path:url(#SVGID_100_);}
	.st50{clip-path:url(#SVGID_102_);}
	.st51{clip-path:url(#SVGID_104_);}
	.st52{clip-path:url(#SVGID_106_);}
	.st53{clip-path:url(#SVGID_108_);}
	.st54{clip-path:url(#SVGID_110_);}
	.st55{clip-path:url(#SVGID_112_);}
	.st56{clip-path:url(#SVGID_114_);}
	.st57{clip-path:url(#SVGID_116_);}
	.st58{clip-path:url(#SVGID_118_);}
	.st59{clip-path:url(#SVGID_120_);}
	.st60{clip-path:url(#SVGID_122_);}
	.st61{clip-path:url(#SVGID_124_);}
	.st62{clip-path:url(#SVGID_126_);}
	.st63{clip-path:url(#SVGID_128_);}
	.st64{fill-rule:evenodd;clip-rule:evenodd;fill:#499DD6;}
</style>
<g>
	<defs>
		<path id="SVGID_1_" d="M57.7,10.4v-2h3V5.2c0-1.6,0.3-2.9,1-3.8C62.3,0.5,63.4,0,65,0c0.4,0,0.7,0,1,0c0.3,0,0.6,0.1,0.9,0.1v2.1
			c-0.5-0.1-1-0.2-1.4-0.2c-0.6,0-1.1,0.1-1.4,0.3c-0.3,0.2-0.6,0.5-0.7,0.9c-0.2,0.4-0.3,0.8-0.3,1.2c0,0.5-0.1,0.9-0.1,1.4v2.5H67
			v2h-3.9v18.3h-2.4V10.4H57.7z"/>
	</defs>
	<clipPath id="SVGID_2_">
		<use xlink:href="#SVGID_1_"  style="overflow:visible;"/>
	</clipPath>
	<g class="st0">
		<defs>
			<rect id="SVGID_3_" x="-76.2" y="-264.7" width="391.2" height="373.5"/>
		</defs>
		<clipPath id="SVGID_4_">
			<use xlink:href="#SVGID_3_"  style="overflow:visible;"/>
		</clipPath>
		<rect x="55.3" y="-2.3" class="st1" width="14" height="33.3"/>
	</g>
</g>
<g>
	<defs>
		<path id="SVGID_5_" d="M79.6,16.9c0.4-0.1,1-0.1,1.6-0.2c0.6-0.1,1.1-0.2,1.5-0.4c0.4-0.2,0.6-0.5,0.7-0.9
			c0.1-0.4,0.1-0.8,0.1-1.2c0-1.2-0.4-2.2-1.2-2.9c-0.8-0.8-2.1-1.2-3.9-1.2c-0.8,0-1.6,0.1-2.2,0.2c-0.7,0.1-1.3,0.4-1.8,0.7
			c-0.5,0.4-0.9,0.8-1.3,1.4c-0.3,0.6-0.5,1.3-0.7,2.2h-2.4c0.1-1.2,0.4-2.2,0.8-3.1c0.5-0.8,1.1-1.5,1.8-2.1
			c0.7-0.5,1.6-0.9,2.6-1.2c1-0.2,2-0.4,3.1-0.4c1,0,2,0.1,2.9,0.3c0.9,0.2,1.7,0.6,2.4,1.1c0.7,0.5,1.2,1.1,1.6,1.9
			c0.4,0.8,0.6,1.8,0.6,3v11c0,0.9,0.2,1.5,0.5,1.7c0.3,0.2,1,0.2,2-0.2v1.8c-0.2,0.1-0.5,0.1-0.8,0.2c-0.4,0.1-0.7,0.2-1,0.2
			c-0.4,0-0.7,0-1.1-0.1c-0.4-0.1-0.7-0.2-0.9-0.4c-0.2-0.2-0.4-0.4-0.6-0.7c-0.1-0.3-0.2-0.6-0.3-0.9c-0.1-0.3-0.1-0.7-0.1-1
			c-1,1.1-2.1,1.9-3.4,2.5c-1.3,0.6-2.7,0.9-4.2,0.9c-0.9,0-1.8-0.1-2.6-0.4c-0.8-0.2-1.6-0.6-2.2-1.1c-0.6-0.5-1.1-1.1-1.5-1.8
			c-0.4-0.7-0.6-1.6-0.6-2.6c0-3.4,2.4-5.5,7.1-6.1L79.6,16.9z M83.6,18c-1,0.4-2,0.7-3,0.8c-1,0.1-2,0.2-3.1,0.3
			c-1.8,0.1-3.2,0.5-4.2,1.2c-1,0.7-1.5,1.7-1.5,3.1c0,0.6,0.1,1.2,0.4,1.6c0.2,0.5,0.6,0.8,1,1.1c0.4,0.3,0.9,0.5,1.4,0.7
			c0.5,0.1,1.1,0.2,1.6,0.2c0.9,0,1.9-0.1,2.8-0.4c0.9-0.2,1.7-0.6,2.4-1.1c0.7-0.5,1.3-1.1,1.7-1.8c0.4-0.7,0.6-1.6,0.6-2.6V18z"/>
	</defs>
	<clipPath id="SVGID_6_">
		<use xlink:href="#SVGID_5_"  style="overflow:visible;"/>
	</clipPath>
	<g class="st2">
		<defs>
			<rect id="SVGID_7_" x="-76.2" y="-264.7" width="391.2" height="373.5"/>
		</defs>
		<clipPath id="SVGID_8_">
			<use xlink:href="#SVGID_7_"  style="overflow:visible;"/>
		</clipPath>
		<rect x="66.9" y="5.5" class="st3" width="23.9" height="26"/>
	</g>
</g>
<g>
	<defs>
		<path id="SVGID_9_" d="M106.2,14.8c-0.4-1.5-1.1-2.7-2.2-3.5c-1-0.8-2.3-1.3-3.9-1.3c-1.2,0-2.2,0.2-3.1,0.7
			c-0.9,0.5-1.6,1.2-2.1,2c-0.6,0.8-1,1.7-1.2,2.8c-0.3,1-0.4,2.1-0.4,3.1c0,1.1,0.1,2.1,0.4,3.1c0.2,1,0.6,1.9,1.2,2.7
			c0.6,0.8,1.3,1.5,2.1,1.9c0.9,0.5,1.9,0.7,3.2,0.7c1.8,0,3.2-0.5,4.2-1.4c1.1-1,1.7-2.3,2-4h2.5c-0.2,1.1-0.5,2.1-1,3.1
			c-0.5,0.9-1.1,1.7-1.8,2.4c-0.7,0.7-1.6,1.2-2.6,1.5c-1,0.4-2.1,0.5-3.4,0.5c-1.6,0-3-0.3-4.2-0.8c-1.2-0.5-2.2-1.3-2.9-2.2
			c-0.8-1-1.3-2.1-1.7-3.4c-0.4-1.3-0.6-2.7-0.6-4.2c0-1.4,0.2-2.8,0.6-4c0.4-1.3,1-2.4,1.8-3.4c0.8-1,1.8-1.8,2.9-2.4
			c1.2-0.6,2.5-0.9,4-0.9c2.4,0,4.3,0.6,5.7,1.7c1.5,1.1,2.4,2.9,2.7,5.2H106.2z"/>
	</defs>
	<clipPath id="SVGID_10_">
		<use xlink:href="#SVGID_9_"  style="overflow:visible;"/>
	</clipPath>
	<g class="st4">
		<defs>
			<rect id="SVGID_11_" x="-76.2" y="-264.7" width="391.2" height="373.5"/>
		</defs>
		<clipPath id="SVGID_12_">
			<use xlink:href="#SVGID_11_"  style="overflow:visible;"/>
		</clipPath>
		<rect x="88.4" y="5.5" class="st5" width="22.8" height="26"/>
	</g>
</g>
<g>
	<defs>
		<path id="SVGID_13_" d="M120.3,28.7c-0.3,0.1-0.7,0.1-1.1,0.3c-0.5,0.1-1,0.2-1.6,0.2c-1.2,0-2.1-0.3-2.7-0.9
			c-0.6-0.6-0.9-1.6-0.9-3.1V10.4h-2.9v-2h2.9V2.8h2.4v5.6h3.8v2h-3.8v13.9c0,0.5,0,0.9,0,1.3c0,0.4,0.1,0.7,0.2,0.9
			c0.1,0.2,0.3,0.4,0.6,0.5c0.3,0.1,0.7,0.2,1.2,0.2c0.3,0,0.6,0,1-0.1c0.3-0.1,0.7-0.1,1-0.2V28.7z"/>
	</defs>
	<clipPath id="SVGID_14_">
		<use xlink:href="#SVGID_13_"  style="overflow:visible;"/>
	</clipPath>
	<g class="st6">
		<defs>
			<rect id="SVGID_15_" x="-76.2" y="-264.7" width="391.2" height="373.5"/>
		</defs>
		<clipPath id="SVGID_16_">
			<use xlink:href="#SVGID_15_"  style="overflow:visible;"/>
		</clipPath>
		<rect x="108.8" y="0.5" class="st7" width="13.9" height="31.1"/>
	</g>
</g>
<g>
	<defs>
		<path id="SVGID_17_" d="M136,15.8c-0.1-0.8-0.4-1.4-0.8-2c-0.6-0.8-1.5-1.2-2.8-1.2c-1.8,0-3,0.9-3.7,2.7
			c-0.4,0.9-0.5,2.2-0.5,3.8c0,1.5,0.2,2.7,0.5,3.6c0.6,1.7,1.8,2.5,3.6,2.5c1.3,0,2.1-0.3,2.7-1c0.5-0.7,0.8-1.5,1-2.6h5.5
			c-0.1,1.6-0.7,3.1-1.8,4.6c-1.7,2.3-4.2,3.5-7.5,3.5c-3.3,0-5.7-1-7.3-2.9c-1.6-1.9-2.3-4.4-2.3-7.5c0-3.5,0.9-6.2,2.6-8.1
			c1.7-1.9,4.1-2.9,7.1-2.9c2.6,0,4.7,0.6,6.3,1.7c1.6,1.1,2.6,3.2,2.9,6.1H136z"/>
	</defs>
	<clipPath id="SVGID_18_">
		<use xlink:href="#SVGID_17_"  style="overflow:visible;"/>
	</clipPath>
	<g class="st8">
		<defs>
			<rect id="SVGID_19_" x="-76.2" y="-264.7" width="391.2" height="373.5"/>
		</defs>
		<clipPath id="SVGID_20_">
			<use xlink:href="#SVGID_19_"  style="overflow:visible;"/>
		</clipPath>
		<rect x="120.2" y="5.7" class="st9" width="23.6" height="26.1"/>
	</g>
</g>
<g>
	<defs>
		<path id="SVGID_21_" d="M159.4,8.6c1,0.4,1.9,1.1,2.5,2c0.6,0.8,0.9,1.5,1,2.3c0.1,0.8,0.2,2.1,0.2,3.9v11.9h-5.5V16.5
			c0-1.1-0.2-2-0.6-2.6c-0.5-0.9-1.4-1.4-2.8-1.4c-1.4,0-2.5,0.5-3.2,1.4c-0.7,0.9-1.1,2.3-1.1,4v11h-5.4V1.5h5.4v9.7
			c0.8-1.2,1.7-2,2.7-2.5c1-0.5,2.1-0.7,3.2-0.7C157.2,8,158.4,8.2,159.4,8.6"/>
	</defs>
	<clipPath id="SVGID_22_">
		<use xlink:href="#SVGID_21_"  style="overflow:visible;"/>
	</clipPath>
	<g class="st10">
		<defs>
			<rect id="SVGID_23_" x="-76.2" y="-264.7" width="391.2" height="373.5"/>
		</defs>
		<clipPath id="SVGID_24_">
			<use xlink:href="#SVGID_23_"  style="overflow:visible;"/>
		</clipPath>
		<rect x="142.4" y="-0.9" class="st11" width="23.1" height="32"/>
	</g>
</g>
<g>
	<defs>
		<path id="SVGID_25_" d="M181.1,8.9c1.4,0.6,2.6,1.6,3.5,3c0.8,1.2,1.4,2.6,1.6,4.2c0.1,0.9,0.2,2.3,0.2,4h-14.9
			c0.1,2,0.8,3.5,2.1,4.3c0.8,0.5,1.8,0.8,3,0.8c1.2,0,2.2-0.3,3-0.9c0.4-0.3,0.8-0.8,1.1-1.4h5.5c-0.1,1.2-0.8,2.4-2,3.7
			c-1.8,2-4.4,3-7.7,3c-2.7,0-5.1-0.8-7.2-2.5c-2.1-1.7-3.1-4.4-3.1-8.1c0-3.5,0.9-6.2,2.8-8.1c1.9-1.9,4.3-2.8,7.3-2.8
			C178.1,8,179.7,8.3,181.1,8.9 M173.1,13.5c-0.8,0.8-1.2,1.8-1.4,3.1h9.2c-0.1-1.4-0.6-2.5-1.4-3.2c-0.9-0.7-1.9-1.1-3.2-1.1
			C174.9,12.4,173.9,12.8,173.1,13.5"/>
	</defs>
	<clipPath id="SVGID_26_">
		<use xlink:href="#SVGID_25_"  style="overflow:visible;"/>
	</clipPath>
	<g class="st12">
		<defs>
			<rect id="SVGID_27_" x="-76.2" y="-264.7" width="391.2" height="373.5"/>
		</defs>
		<clipPath id="SVGID_28_">
			<use xlink:href="#SVGID_27_"  style="overflow:visible;"/>
		</clipPath>
		<rect x="163.8" y="5.7" class="st13" width="25" height="26.2"/>
	</g>
</g>
<g>
	<defs>
		<path id="SVGID_29_" d="M202.5,15.8c-0.1-0.8-0.4-1.4-0.8-2c-0.6-0.8-1.5-1.2-2.8-1.2c-1.8,0-3,0.9-3.7,2.7
			c-0.4,0.9-0.5,2.2-0.5,3.8c0,1.5,0.2,2.7,0.5,3.6c0.6,1.7,1.8,2.5,3.6,2.5c1.3,0,2.1-0.3,2.7-1c0.5-0.7,0.8-1.5,1-2.6h5.5
			c-0.1,1.6-0.7,3.1-1.8,4.6c-1.7,2.3-4.2,3.5-7.5,3.5c-3.3,0-5.7-1-7.3-2.9c-1.6-1.9-2.3-4.4-2.3-7.5c0-3.5,0.9-6.2,2.6-8.1
			c1.7-1.9,4.1-2.9,7.1-2.9c2.6,0,4.7,0.6,6.3,1.7c1.6,1.1,2.6,3.2,2.9,6.1H202.5z"/>
	</defs>
	<clipPath id="SVGID_30_">
		<use xlink:href="#SVGID_29_"  style="overflow:visible;"/>
	</clipPath>
	<g class="st14">
		<defs>
			<rect id="SVGID_31_" x="-76.2" y="-264.7" width="391.2" height="373.5"/>
		</defs>
		<clipPath id="SVGID_32_">
			<use xlink:href="#SVGID_31_"  style="overflow:visible;"/>
		</clipPath>
		<rect x="186.7" y="5.7" class="st15" width="23.6" height="26.1"/>
	</g>
</g>
<g>
	<defs>
		<polygon id="SVGID_33_" points="211.1,1.5 216.4,1.5 216.4,16.3 223.2,8.6 229.8,8.6 222.5,16.2 230.1,28.8 223.6,28.8 
			218.6,20.2 216.4,22.4 216.4,28.8 211.1,28.8 		"/>
	</defs>
	<clipPath id="SVGID_34_">
		<use xlink:href="#SVGID_33_"  style="overflow:visible;"/>
	</clipPath>
	<g class="st16">
		<defs>
			<rect id="SVGID_35_" x="-76.2" y="-264.7" width="391.2" height="373.5"/>
		</defs>
		<clipPath id="SVGID_36_">
			<use xlink:href="#SVGID_35_"  style="overflow:visible;"/>
		</clipPath>
		<rect x="208.8" y="-0.9" class="st17" width="23.6" height="32"/>
	</g>
</g>
<g>
	<defs>
		<path id="SVGID_37_" d="M66,47c-0.3-0.2-0.6-0.4-1.1-0.7c-0.4-0.3-0.8-0.7-1.2-1.2c-0.4-0.5-0.7-1-1-1.4c-0.2-0.5-0.4-0.8-0.5-1.1
			c-0.1,0.3-0.2,0.6-0.4,1.1c-0.2,0.5-0.6,1-1,1.5c-0.3,0.4-0.7,0.8-1.1,1.2c-0.4,0.4-0.8,0.7-1.2,0.9l-0.9-0.7
			c0.5-0.3,1-0.7,1.5-1.1c0.5-0.5,1-1,1.4-1.6c0.4-0.6,0.7-1.3,0.9-2c0.2-0.7,0.3-1.5,0.3-2.2v-2.3h1.2v2.3c0,0.7,0.1,1.4,0.3,2.1
			c0.2,0.7,0.5,1.4,1,2c0.4,0.6,0.8,1,1.4,1.5c0.5,0.4,1,0.7,1.4,0.9L66,47z M68.4,49.6v-7.6h-3.3v-0.9h3.3v-4.5h1.1v13H68.4z"/>
	</defs>
	<clipPath id="SVGID_38_">
		<use xlink:href="#SVGID_37_"  style="overflow:visible;"/>
	</clipPath>
	<g class="st18">
		<defs>
			<rect id="SVGID_39_" x="-76.2" y="-264.7" width="391.2" height="373.5"/>
		</defs>
		<clipPath id="SVGID_40_">
			<use xlink:href="#SVGID_39_"  style="overflow:visible;"/>
		</clipPath>
		<rect x="55.3" y="34.2" class="st19" width="16.6" height="17.7"/>
	</g>
</g>
<g>
	<defs>
		<path id="SVGID_41_" d="M78.6,43.1v1.3h4.2v2.9h-8.4v1.2h8.7v0.9h-9.9v-3h8.4v-1.2h-8.4v-0.9h4.2v-1.3h-6v-0.9h13.2v0.9H78.6z
			 M81.6,37.2c0.9,0.5,1.3,1,1.3,1.6c0,0.7-0.4,1.2-1.3,1.7c-0.9,0.4-2.1,0.7-3.7,0.7c-1.6,0-2.8-0.2-3.7-0.7
			c-0.9-0.4-1.3-1-1.3-1.7c0-0.7,0.4-1.2,1.3-1.7c0.9-0.4,2.1-0.7,3.7-0.7C79.6,36.5,80.8,36.7,81.6,37.2z M75.2,37.8
			c-0.7,0.3-1,0.6-1,1.1c0,0.4,0.4,0.8,1.1,1.1c0.7,0.3,1.6,0.4,2.7,0.4c1.1,0,2-0.1,2.7-0.4c0.7-0.3,1.1-0.6,1.1-1.1
			c0-0.4-0.4-0.8-1.1-1.1c-0.7-0.3-1.6-0.4-2.7-0.4C76.8,37.3,75.9,37.5,75.2,37.8z"/>
	</defs>
	<clipPath id="SVGID_42_">
		<use xlink:href="#SVGID_41_"  style="overflow:visible;"/>
	</clipPath>
	<g class="st20">
		<defs>
			<rect id="SVGID_43_" x="-76.2" y="-264.7" width="391.2" height="373.5"/>
		</defs>
		<clipPath id="SVGID_44_">
			<use xlink:href="#SVGID_43_"  style="overflow:visible;"/>
		</clipPath>
		<rect x="69" y="34.2" class="st21" width="17.8" height="17.6"/>
	</g>
</g>
<g>
	<defs>
		<path id="SVGID_45_" d="M91.2,46.4c-0.5,0.1-1,0.1-1.7,0.1c-0.7,0-1.3,0-2,0h-1v-8.3h4.7v0.9h-3.6v6.4l2.2,0c0.4,0,0.9,0,1.4-0.1
			c0.5-0.1,0.8-0.1,1.1-0.2v0.9C92.1,46.3,91.7,46.4,91.2,46.4z M96.3,49.6v-6.9h-2V49h-1.1V36.9h1.1v4.9h2v-5.2h1.1v13H96.3z"/>
	</defs>
	<clipPath id="SVGID_46_">
		<use xlink:href="#SVGID_45_"  style="overflow:visible;"/>
	</clipPath>
	<g class="st22">
		<defs>
			<rect id="SVGID_47_" x="-76.2" y="-264.7" width="391.2" height="373.5"/>
		</defs>
		<clipPath id="SVGID_48_">
			<use xlink:href="#SVGID_47_"  style="overflow:visible;"/>
		</clipPath>
		<rect x="84.2" y="34.2" class="st23" width="15.5" height="17.7"/>
	</g>
</g>
<g>
	<defs>
		<path id="SVGID_49_" d="M99.8,39.5h8.3v-0.9h-8.3V39.5z M101.4,43.9c-0.6-0.4-0.9-0.9-0.9-1.5c0-0.6,0.3-1.1,0.9-1.5
			c0.6-0.4,1.5-0.6,2.6-0.6c1.1,0,1.9,0.2,2.6,0.6c0.6,0.4,0.9,0.9,0.9,1.5c0,0.6-0.3,1.1-0.9,1.5c-0.6,0.4-1.5,0.6-2.6,0.6
			C102.8,44.5,102,44.3,101.4,43.9z M109.6,49.6v-3h-8.3v-0.9h9.4v3.9H109.6z M105.6,41.4c-0.4-0.2-1-0.4-1.7-0.4
			c-0.7,0-1.3,0.1-1.7,0.4c-0.4,0.2-0.6,0.6-0.6,0.9c0,0.4,0.2,0.7,0.6,0.9c0.4,0.2,1,0.4,1.7,0.4c0.8,0,1.3-0.1,1.7-0.4
			c0.4-0.3,0.6-0.6,0.6-0.9C106.2,42,106,41.7,105.6,41.4z M101.7,37.5h4.4v-0.9h-4.4V37.5z M110.7,41.2v3.7h-1.1v-8.3h1.1v3.7h2
			v0.9H110.7z"/>
	</defs>
	<clipPath id="SVGID_50_">
		<use xlink:href="#SVGID_49_"  style="overflow:visible;"/>
	</clipPath>
	<g class="st24">
		<defs>
			<rect id="SVGID_51_" x="-76.2" y="-264.7" width="391.2" height="373.5"/>
		</defs>
		<clipPath id="SVGID_52_">
			<use xlink:href="#SVGID_51_"  style="overflow:visible;"/>
		</clipPath>
		<rect x="97.4" y="34.2" class="st25" width="17.6" height="17.7"/>
	</g>
</g>
<g>
	<defs>
		<path id="SVGID_53_" d="M113.2,47.8v-0.9h3.4v-4.7h1.1v4.7h2.3v-4.7h1.1v4.7h5.3v0.9H113.2z M124.6,40c-0.1,0.6-0.1,1.2-0.2,1.8
			c-0.1,0.8-0.2,1.6-0.4,2.2c-0.1,0.7-0.2,1-0.2,1.1h-1.1c0-0.1,0.2-0.9,0.4-2.4c0.2-1.5,0.4-2.7,0.4-3.7h-8.8v-0.9h10
			C124.7,38.9,124.7,39.5,124.6,40z"/>
	</defs>
	<clipPath id="SVGID_54_">
		<use xlink:href="#SVGID_53_"  style="overflow:visible;"/>
	</clipPath>
	<g class="st26">
		<defs>
			<rect id="SVGID_55_" x="-76.2" y="-264.7" width="391.2" height="373.5"/>
		</defs>
		<clipPath id="SVGID_56_">
			<use xlink:href="#SVGID_55_"  style="overflow:visible;"/>
		</clipPath>
		<rect x="110.8" y="35.8" class="st27" width="17.8" height="14.3"/>
	</g>
</g>
<g>
	<defs>
		<path id="SVGID_57_" d="M143.3,46v-5.3h-3c-0.1,0.8-0.5,1.5-1.1,2.1c-0.7,0.6-1.5,0.8-2.4,0.8c-1,0-1.9-0.3-2.6-1
			c-0.7-0.6-1-1.4-1-2.3c0-0.9,0.3-1.7,1-2.3c0.7-0.6,1.5-1,2.6-1c0.9,0,1.7,0.3,2.4,0.8c0.7,0.5,1,1.2,1.2,2h3v-3.2h1.1V46H143.3z
			 M134.9,38.7c-0.4,0.5-0.6,1-0.6,1.6c0,0.6,0.2,1.2,0.6,1.6c0.4,0.5,1,0.7,1.8,0.7c0.8,0,1.4-0.2,1.8-0.7c0.4-0.4,0.6-1,0.6-1.6
			c0-0.6-0.2-1.2-0.6-1.6c-0.4-0.5-1-0.7-1.8-0.7C135.9,38,135.3,38.2,134.9,38.7z M135.2,49.3v-4.1h1.1v3.2h8.4v0.9H135.2z"/>
	</defs>
	<clipPath id="SVGID_58_">
		<use xlink:href="#SVGID_57_"  style="overflow:visible;"/>
	</clipPath>
	<g class="st28">
		<defs>
			<rect id="SVGID_59_" x="-76.2" y="-264.7" width="391.2" height="373.5"/>
		</defs>
		<clipPath id="SVGID_60_">
			<use xlink:href="#SVGID_59_"  style="overflow:visible;"/>
		</clipPath>
		<rect x="130.7" y="34.2" class="st29" width="16.3" height="17.4"/>
	</g>
</g>
<g>
	<defs>
		<path id="SVGID_61_" d="M146.4,45.1v-0.9h5.9v-1.6h-4.1v-3.3h8.3v-1.4h-8.3V37h9.4v3.2h-8.3v1.4h8.6v0.9h-4.5v1.6h6v0.9H146.4z
			 M148.2,49.3v-3.5h1.1v2.5h8.9v0.9H148.2z"/>
	</defs>
	<clipPath id="SVGID_62_">
		<use xlink:href="#SVGID_61_"  style="overflow:visible;"/>
	</clipPath>
	<g class="st30">
		<defs>
			<rect id="SVGID_63_" x="-76.2" y="-264.7" width="391.2" height="373.5"/>
		</defs>
		<clipPath id="SVGID_64_">
			<use xlink:href="#SVGID_63_"  style="overflow:visible;"/>
		</clipPath>
		<rect x="144.1" y="34.6" class="st31" width="17.8" height="17"/>
	</g>
</g>
<g>
	<defs>
		<path id="SVGID_65_" d="M168.6,43.6c-0.2-0.1-0.5-0.2-0.9-0.4c-0.5-0.2-0.9-0.5-1.3-0.9c-0.3-0.3-0.6-0.6-0.8-0.8
			c-0.2-0.2-0.4-0.5-0.5-0.8c-0.1,0.3-0.3,0.6-0.6,0.9c-0.2,0.3-0.5,0.6-0.9,0.9c-0.4,0.4-0.8,0.7-1.2,0.9c-0.4,0.2-0.7,0.4-1,0.5
			l-0.8-0.8c0.4-0.2,0.8-0.4,1.3-0.7c0.5-0.3,1-0.7,1.4-1.1c0.3-0.3,0.5-0.7,0.8-1.2c0.2-0.5,0.4-1,0.4-1.5l0-0.3h-3v-0.9h7.1v0.9
			h-3l0,0.3c0,0.6,0.1,1.1,0.3,1.5c0.2,0.4,0.5,0.8,0.8,1.1c0.4,0.4,0.8,0.7,1.3,0.9c0.5,0.2,0.9,0.4,1.1,0.5L168.6,43.6z
			 M171.5,49.2c-0.8,0.5-2,0.7-3.6,0.7c-1.6,0-2.8-0.2-3.6-0.7c-0.8-0.5-1.3-1.1-1.3-1.8c0-0.7,0.4-1.4,1.3-1.8
			c0.8-0.5,2-0.7,3.6-0.7c1.6,0,2.8,0.2,3.6,0.7c0.8,0.5,1.2,1.1,1.2,1.8C172.8,48.1,172.3,48.7,171.5,49.2z M170.5,46.1
			c-0.7-0.3-1.6-0.4-2.6-0.4c-1.1,0-2,0.1-2.7,0.4c-0.7,0.3-1,0.7-1,1.2c0,0.5,0.3,0.9,1,1.2c0.7,0.3,1.6,0.5,2.7,0.5
			c1.1,0,1.9-0.1,2.6-0.4c0.7-0.3,1-0.7,1-1.2C171.5,46.8,171.2,46.4,170.5,46.1z M171.5,44.5v-3.8h-3.1v-0.9h3.1v-3.2h1.1v7.9
			H171.5z"/>
	</defs>
	<clipPath id="SVGID_66_">
		<use xlink:href="#SVGID_65_"  style="overflow:visible;"/>
	</clipPath>
	<g class="st32">
		<defs>
			<rect id="SVGID_67_" x="-76.2" y="-264.7" width="391.2" height="373.5"/>
		</defs>
		<clipPath id="SVGID_68_">
			<use xlink:href="#SVGID_67_"  style="overflow:visible;"/>
		</clipPath>
		<rect x="158.3" y="34.2" class="st33" width="16.8" height="18"/>
	</g>
</g>
<g>
	<defs>
		<path id="SVGID_69_" d="M174.2,47.9V47h6v-2.8h-4.2v-6.8h1.1v2.3h7.3v-2.3h1.1v6.8h-4.2V47h6v0.9H174.2z M177.2,43.3h7.3v-2.6
			h-7.3V43.3z"/>
	</defs>
	<clipPath id="SVGID_70_">
		<use xlink:href="#SVGID_69_"  style="overflow:visible;"/>
	</clipPath>
	<g class="st34">
		<defs>
			<rect id="SVGID_71_" x="-76.2" y="-264.7" width="391.2" height="373.5"/>
		</defs>
		<clipPath id="SVGID_72_">
			<use xlink:href="#SVGID_71_"  style="overflow:visible;"/>
		</clipPath>
		<rect x="171.9" y="35.1" class="st35" width="17.8" height="15.1"/>
	</g>
</g>
<g>
	<defs>
		<path id="SVGID_73_" d="M199.1,46v-4h-3.5c-0.3,0.5-0.7,0.8-1.3,1.1c-0.5,0.3-1.1,0.4-1.8,0.4c-1.1,0-1.9-0.3-2.6-0.9
			c-0.7-0.6-1-1.4-1-2.3c0-0.9,0.3-1.7,1-2.3c0.7-0.6,1.5-0.9,2.6-0.9c0.6,0,1.2,0.1,1.7,0.4c0.5,0.2,0.9,0.6,1.2,1h3.6v-1.8h1.1V46
			H199.1z M190.7,38.7c-0.4,0.4-0.6,1-0.6,1.6c0,0.6,0.2,1.2,0.6,1.6c0.4,0.4,1,0.7,1.8,0.7c0.8,0,1.4-0.2,1.8-0.7
			c0.4-0.4,0.6-1,0.6-1.6c0-0.6-0.2-1.2-0.6-1.6c-0.4-0.4-1-0.7-1.8-0.7C191.7,38,191.1,38.2,190.7,38.7z M191,49.3v-4.1h1.1v3.2
			h8.5v0.9H191z M199.1,39.3h-3.2c0,0.2,0.1,0.3,0.1,0.5c0,0.2,0,0.3,0,0.5c0,0.1,0,0.3,0,0.4c0,0.1-0.1,0.3-0.1,0.4h3.1V39.3z"/>
	</defs>
	<clipPath id="SVGID_74_">
		<use xlink:href="#SVGID_73_"  style="overflow:visible;"/>
	</clipPath>
	<g class="st36">
		<defs>
			<rect id="SVGID_75_" x="-76.2" y="-264.7" width="391.2" height="373.5"/>
		</defs>
		<clipPath id="SVGID_76_">
			<use xlink:href="#SVGID_75_"  style="overflow:visible;"/>
		</clipPath>
		<rect x="186.5" y="34.2" class="st37" width="16.3" height="17.4"/>
	</g>
</g>
<g>
	<defs>
		<path id="SVGID_77_" d="M208.9,43.9v5.7h-1.1v-5.7h-5.7V43h9.6c0.1-0.4,0.2-1.1,0.4-2.1c0.2-1,0.3-1.9,0.4-2.6h-8.8v-0.9h10.1
			c0,0.2-0.1,0.7-0.1,1.3c-0.1,0.6-0.2,1.2-0.3,1.8c-0.1,0.5-0.2,1-0.3,1.4c-0.1,0.5-0.2,0.8-0.2,1h2.4v0.9H208.9z"/>
	</defs>
	<clipPath id="SVGID_78_">
		<use xlink:href="#SVGID_77_"  style="overflow:visible;"/>
	</clipPath>
	<g class="st38">
		<defs>
			<rect id="SVGID_79_" x="-76.2" y="-264.7" width="391.2" height="373.5"/>
		</defs>
		<clipPath id="SVGID_80_">
			<use xlink:href="#SVGID_79_"  style="overflow:visible;"/>
		</clipPath>
		<rect x="199.8" y="35.1" class="st39" width="17.8" height="16.9"/>
	</g>
</g>
<g>
	<defs>
		<path id="SVGID_81_" d="M216,47.9V47h6v-3.1h1.1V47h6v0.9H216z M223.7,40.1c0.3,0.6,0.8,1.2,1.3,1.7c0.6,0.5,1.2,0.9,1.9,1.3
			c0.7,0.4,1.2,0.6,1.5,0.7l-0.8,0.7c-0.3-0.1-0.7-0.3-1.3-0.6c-0.6-0.3-1.2-0.7-1.8-1.2c-0.5-0.4-0.9-0.9-1.3-1.4
			c-0.4-0.5-0.6-0.9-0.7-1.2c-0.1,0.3-0.3,0.7-0.7,1.2c-0.4,0.5-0.8,1-1.3,1.4c-0.6,0.5-1.2,0.9-1.8,1.2c-0.6,0.3-1,0.5-1.3,0.6
			l-0.8-0.7c0.3-0.1,0.8-0.3,1.5-0.7c0.7-0.4,1.3-0.8,1.9-1.3c0.5-0.5,1-1,1.3-1.7c0.3-0.6,0.5-1.3,0.5-1.9v-1.1h1.2v1.1
			C223.2,38.8,223.4,39.5,223.7,40.1z"/>
	</defs>
	<clipPath id="SVGID_82_">
		<use xlink:href="#SVGID_81_"  style="overflow:visible;"/>
	</clipPath>
	<g class="st40">
		<defs>
			<rect id="SVGID_83_" x="-76.2" y="-264.7" width="391.2" height="373.5"/>
		</defs>
		<clipPath id="SVGID_84_">
			<use xlink:href="#SVGID_83_"  style="overflow:visible;"/>
		</clipPath>
		<rect x="213.7" y="34.8" class="st41" width="17.8" height="15.4"/>
	</g>
</g>
<g>
	<defs>
		<path id="SVGID_85_" d="M40.9,4.4c-0.8,0.1-1.6-0.5-1.7-1.3c-0.1-0.8,0.5-1.5,1.3-1.6c0.8-0.1,1.6,0.5,1.6,1.3
			C42.3,3.6,41.7,4.3,40.9,4.4"/>
	</defs>
	<clipPath id="SVGID_86_">
		<use xlink:href="#SVGID_85_"  style="overflow:visible;"/>
	</clipPath>
	<g class="st42">
		<defs>
			<rect id="SVGID_87_" x="-76.2" y="-264.7" width="391.2" height="373.5"/>
		</defs>
		<clipPath id="SVGID_88_">
			<use xlink:href="#SVGID_87_"  style="overflow:visible;"/>
		</clipPath>
		<rect x="36.9" y="-0.9" class="st43" width="7.7" height="7.6"/>
	</g>
</g>
<g>
	<defs>
		<path id="SVGID_89_" d="M34.2,5.2c-0.8,0.1-1.6-0.5-1.7-1.3c-0.1-0.8,0.5-1.5,1.3-1.6c0.8-0.1,1.6,0.5,1.6,1.3
			C35.6,4.4,35,5.1,34.2,5.2"/>
	</defs>
	<clipPath id="SVGID_90_">
		<use xlink:href="#SVGID_89_"  style="overflow:visible;"/>
	</clipPath>
	<g class="st44">
		<defs>
			<rect id="SVGID_91_" x="-76.2" y="-264.7" width="391.2" height="373.5"/>
		</defs>
		<clipPath id="SVGID_92_">
			<use xlink:href="#SVGID_91_"  style="overflow:visible;"/>
		</clipPath>
		<rect x="30.2" y="-0.1" class="st45" width="7.7" height="7.6"/>
	</g>
</g>
<g>
	<defs>
		<path id="SVGID_93_" d="M27.9,7.1c-0.8,0.1-1.6-0.5-1.7-1.3c-0.1-0.8,0.5-1.5,1.3-1.6c0.8-0.1,1.6,0.5,1.6,1.3
			C29.3,6.2,28.7,7,27.9,7.1"/>
	</defs>
	<clipPath id="SVGID_94_">
		<use xlink:href="#SVGID_93_"  style="overflow:visible;"/>
	</clipPath>
	<g class="st46">
		<defs>
			<rect id="SVGID_95_" x="-76.2" y="-264.7" width="391.2" height="373.5"/>
		</defs>
		<clipPath id="SVGID_96_">
			<use xlink:href="#SVGID_95_"  style="overflow:visible;"/>
		</clipPath>
		<rect x="23.9" y="1.8" class="st47" width="7.7" height="7.6"/>
	</g>
</g>
<g>
	<defs>
		<path id="SVGID_97_" d="M22,9.8c-0.8,0.1-1.6-0.5-1.7-1.3c-0.1-0.8,0.5-1.5,1.3-1.6c0.8-0.1,1.6,0.5,1.6,1.3
			C23.4,9,22.8,9.8,22,9.8"/>
	</defs>
	<clipPath id="SVGID_98_">
		<use xlink:href="#SVGID_97_"  style="overflow:visible;"/>
	</clipPath>
	<g class="st48">
		<defs>
			<rect id="SVGID_99_" x="-76.2" y="-264.7" width="391.2" height="373.5"/>
		</defs>
		<clipPath id="SVGID_100_">
			<use xlink:href="#SVGID_99_"  style="overflow:visible;"/>
		</clipPath>
		<rect x="18" y="4.5" class="st49" width="7.7" height="7.6"/>
	</g>
</g>
<g>
	<defs>
		<path id="SVGID_101_" d="M16.7,13.5c-0.8,0.1-1.6-0.5-1.7-1.3c-0.1-0.8,0.5-1.5,1.3-1.6c0.8-0.1,1.6,0.5,1.6,1.3
			C18.1,12.7,17.5,13.4,16.7,13.5"/>
	</defs>
	<clipPath id="SVGID_102_">
		<use xlink:href="#SVGID_101_"  style="overflow:visible;"/>
	</clipPath>
	<g class="st50">
		<defs>
			<rect id="SVGID_103_" x="-76.2" y="-264.7" width="391.2" height="373.5"/>
		</defs>
		<clipPath id="SVGID_104_">
			<use xlink:href="#SVGID_103_"  style="overflow:visible;"/>
		</clipPath>
		<rect x="12.7" y="8.2" class="st51" width="7.7" height="7.6"/>
	</g>
</g>
<g>
	<defs>
		<path id="SVGID_105_" d="M12,17.9c-0.8,0.1-1.6-0.5-1.7-1.3c-0.1-0.8,0.5-1.5,1.3-1.6c0.8-0.1,1.6,0.5,1.6,1.3
			C13.4,17.1,12.8,17.8,12,17.9"/>
	</defs>
	<clipPath id="SVGID_106_">
		<use xlink:href="#SVGID_105_"  style="overflow:visible;"/>
	</clipPath>
	<g class="st52">
		<defs>
			<rect id="SVGID_107_" x="-76.2" y="-264.7" width="391.2" height="373.5"/>
		</defs>
		<clipPath id="SVGID_108_">
			<use xlink:href="#SVGID_107_"  style="overflow:visible;"/>
		</clipPath>
		<rect x="8" y="12.6" class="st53" width="7.7" height="7.6"/>
	</g>
</g>
<g>
	<defs>
		<path id="SVGID_109_" d="M8.1,23c-0.8,0.1-1.6-0.5-1.7-1.3c-0.1-0.8,0.5-1.5,1.3-1.6c0.8-0.1,1.6,0.5,1.6,1.3
			C9.5,22.2,8.9,22.9,8.1,23"/>
	</defs>
	<clipPath id="SVGID_110_">
		<use xlink:href="#SVGID_109_"  style="overflow:visible;"/>
	</clipPath>
	<g class="st54">
		<defs>
			<rect id="SVGID_111_" x="-76.2" y="-264.7" width="391.2" height="373.5"/>
		</defs>
		<clipPath id="SVGID_112_">
			<use xlink:href="#SVGID_111_"  style="overflow:visible;"/>
		</clipPath>
		<rect x="4.1" y="17.7" class="st55" width="7.7" height="7.6"/>
	</g>
</g>
<g>
	<defs>
		<path id="SVGID_113_" d="M5,28.7c-0.8,0.1-1.6-0.5-1.6-1.3c-0.1-0.8,0.5-1.5,1.3-1.6c0.8-0.1,1.6,0.5,1.6,1.3
			C6.4,27.9,5.8,28.6,5,28.7"/>
	</defs>
	<clipPath id="SVGID_114_">
		<use xlink:href="#SVGID_113_"  style="overflow:visible;"/>
	</clipPath>
	<g class="st56">
		<defs>
			<rect id="SVGID_115_" x="-76.2" y="-264.7" width="391.2" height="373.5"/>
		</defs>
		<clipPath id="SVGID_116_">
			<use xlink:href="#SVGID_115_"  style="overflow:visible;"/>
		</clipPath>
		<rect x="1" y="23.4" class="st57" width="7.7" height="7.6"/>
	</g>
</g>
<g>
	<defs>
		<path id="SVGID_117_" d="M2.8,34.9C2,35,1.2,34.4,1.1,33.6c-0.1-0.8,0.5-1.5,1.3-1.6c0.8-0.1,1.6,0.5,1.6,1.3
			C4.2,34.1,3.6,34.9,2.8,34.9"/>
	</defs>
	<clipPath id="SVGID_118_">
		<use xlink:href="#SVGID_117_"  style="overflow:visible;"/>
	</clipPath>
	<g class="st58">
		<defs>
			<rect id="SVGID_119_" x="-76.2" y="-264.7" width="391.2" height="373.5"/>
		</defs>
		<clipPath id="SVGID_120_">
			<use xlink:href="#SVGID_119_"  style="overflow:visible;"/>
		</clipPath>
		<rect x="-1.2" y="29.6" class="st59" width="7.7" height="7.6"/>
	</g>
</g>
<g>
	<defs>
		<path id="SVGID_121_" d="M1.7,41.6c-0.8,0.1-1.6-0.5-1.7-1.3c-0.1-0.8,0.5-1.5,1.4-1.6C2.2,38.6,2.9,39.1,3,40
			C3.1,40.8,2.5,41.5,1.7,41.6"/>
	</defs>
	<clipPath id="SVGID_122_">
		<use xlink:href="#SVGID_121_"  style="overflow:visible;"/>
	</clipPath>
	<g class="st60">
		<defs>
			<rect id="SVGID_123_" x="-76.2" y="-264.7" width="391.2" height="373.5"/>
		</defs>
		<clipPath id="SVGID_124_">
			<use xlink:href="#SVGID_123_"  style="overflow:visible;"/>
		</clipPath>
		<rect x="-2.3" y="36.3" class="st61" width="7.7" height="7.6"/>
	</g>
</g>
<g>
	<defs>
		<path id="SVGID_125_" d="M1.7,48.4c-0.8,0.1-1.6-0.5-1.7-1.3c-0.1-0.8,0.5-1.5,1.3-1.6C2.2,45.4,2.9,46,3,46.8
			C3.1,47.6,2.5,48.3,1.7,48.4"/>
	</defs>
	<clipPath id="SVGID_126_">
		<use xlink:href="#SVGID_125_"  style="overflow:visible;"/>
	</clipPath>
	<g class="st62">
		<defs>
			<rect id="SVGID_127_" x="-76.2" y="-264.7" width="391.2" height="373.5"/>
		</defs>
		<clipPath id="SVGID_128_">
			<use xlink:href="#SVGID_127_"  style="overflow:visible;"/>
		</clipPath>
		<rect x="-2.3" y="43.1" class="st63" width="7.7" height="7.6"/>
	</g>
</g>
<path class="st64" d="M22.4,35c-1-0.8-1.1-2.3-0.2-3.3c0.8-1,2.3-1.1,3.2-0.3c1,0.8,1.1,2.3,0.2,3.3c-0.5,0.6-1.2,0.9-1.9,0.8
	C23.3,35.5,22.8,35.3,22.4,35z M50.1,0.9c0,0-12.5,12.5-18.7,18.8L20.7,30.4c-1.6,1.9-1.4,4.7,0.4,6.2c1.8,1.6,4.6,1.3,6.1-0.6
	L51.2,1.8c0.3-0.3,0.2-0.8-0.1-1c-0.1-0.1-0.3-0.2-0.4-0.2C50.4,0.6,50.2,0.7,50.1,0.9z"/>
</svg>
